<svg xmlns="http://www.w3.org/2000/svg" viewBox="0 0 512 512">
  <rect width="512" height="512" rx="110" fill="#07120d"/>
  <path d="M256 62 84 138v112c0 98 66 170 172 205 106-35 172-107 172-205V138L256 62Z" fill="#16a34a"/>
  <circle cx="256" cy="254" r="116" fill="#07120d" stroke="#dcfce7" stroke-width="18"/>
  <path d="m256 175 50 37-19 59h-62l-19-59 50-37Zm-80 72-43 31 17 57h55l17-52-46-36Zm160 0 43 31-17 57h-55l-17-52 46-36ZM218 350l-21 51 59 20 59-20-21-51h-76Z" fill="#dcfce7"/>
  <text x="256" y="123" fill="#fff" font-size="52" font-family="Arial" font-weight="800" text-anchor="middle">FFU</text>
</svg>
